<?xml version="1.0" encoding="iso-8859-1"?>
<!-- Uploaded to: SVG Repo, www.svgrepo.com, Generator: SVG Repo Mixer Tools -->
<!DOCTYPE svg PUBLIC "-//W3C//DTD SVG 1.1//EN" "http://www.w3.org/Graphics/SVG/1.1/DTD/svg11.dtd">
<svg fill="#000000" height="800px" width="800px" version="1.1" id="Capa_1" xmlns="http://www.w3.org/2000/svg" xmlns:xlink="http://www.w3.org/1999/xlink" 
	 viewBox="0 0 439.117 439.117" xml:space="preserve">
<g>
	<path d="M352.221,27.923c-0.199-2.606-2.371-4.62-4.985-4.62H137.546c-1.392,0-2.721,0.581-3.667,1.602
		c-0.946,1.021-1.424,2.391-1.318,3.779l18.719,245.201c0.199,2.606,2.372,4.62,4.985,4.62h9.78l1.316,16.146
		c0.211,2.595,2.379,4.594,4.983,4.594h185.867c5.368,0,10.534-2.264,14.173-6.211s5.476-9.28,5.039-14.63l-0.432-5.305
		c-0.211-2.596-2.379-4.595-4.983-4.595h-1.421L352.221,27.923z M142.942,33.303h199.661l17.955,235.201h-199.66L142.942,33.303z
		 M176.953,289.245l-0.875-10.74h16.237l0.058,0.711c0.213,2.613-0.648,5.113-2.425,7.041c-1.777,1.927-4.199,2.989-6.82,2.989
		H176.953z M365.031,286.256c-1.776,1.927-4.199,2.989-6.82,2.989H199.995c1.786-3.255,2.633-6.987,2.347-10.74h163.612h1.444
		l0.058,0.711C367.669,281.828,366.808,284.328,365.031,286.256z"/>
	<path d="M347.712,261.556c1.393,0,2.722-0.581,3.668-1.602c0.946-1.021,1.424-2.391,1.317-3.779L336.566,44.871
		c-0.199-2.606-2.371-4.62-4.985-4.62H155.788c-1.392,0-2.721,0.581-3.667,1.602c-0.946,1.021-1.424,2.391-1.318,3.779
		l16.131,211.305c0.199,2.606,2.372,4.62,4.985,4.62H347.712z M161.184,50.251h165.765l15.367,201.305H176.551L161.184,50.251z"/>
	<path d="M373.745,4.62C373.546,2.013,371.374,0,368.76,0L70.356,0.002c-2.614,0-4.787,2.013-4.985,4.62L32.613,433.736
		c-0.106,1.388,0.372,2.757,1.318,3.779c0.946,1.021,2.275,1.602,3.667,1.602h39.683c2.614,0,4.787-2.013,4.985-4.62l7.825-102.501
		h25.941l7.825,102.499c0.199,2.606,2.372,4.62,4.985,4.62h39.683c1.392,0,2.721-0.581,3.667-1.602
		c0.946-1.021,1.424-2.391,1.318-3.779l-7.767-101.74h107.632l-7.767,101.741c-0.106,1.388,0.371,2.757,1.317,3.779
		c0.946,1.021,2.275,1.602,3.668,1.602l39.677,0.001c2.614,0,4.786-2.013,4.985-4.62l7.825-102.503h25.943l7.824,102.503
		c0.199,2.606,2.371,4.62,4.985,4.62l39.684-0.002c1.393,0,2.722-0.581,3.668-1.602c0.946-1.021,1.424-2.391,1.317-3.779
		L373.745,4.62z M74.989,10.002h6.355L49.345,429.117h-6.35L74.989,10.002z M85.458,321.996c-2.614,0-4.787,2.013-4.985,4.62
		l-7.825,102.501H59.374l32-419.12h0.078l23.818,311.999H85.458z M101.48,10h6.35l31.995,419.114h-6.351L101.48,10z
		 M282.335,429.115h-6.344l7.414-97.12h6.344L282.335,429.115z M305.639,429.117h-13.274l7.414-97.123h13.275L305.639,429.117z
		 M359.054,331.994h6.35l7.415,97.123h-6.351L359.054,331.994z M382.848,429.114l-7.825-102.5c-0.199-2.606-2.372-4.62-4.985-4.62
		H160.348c-1.392,0-2.721,0.581-3.667,1.602c-0.946,1.021-1.424,2.391-1.318,3.779l7.766,101.74h-13.274L117.86,10h246.267
		l31.995,419.114H382.848z"/>
	<path d="M90.755,192.899c-2.748-0.221-5.155,1.852-5.366,4.605l-8.177,107.121c-0.21,2.753,1.852,5.156,4.605,5.366
		c0.129,0.01,0.258,0.015,0.386,0.015c2.588,0,4.78-1.996,4.98-4.62l8.177-107.121C95.571,195.511,93.509,193.109,90.755,192.899z"
		/>
	<path d="M99.911,309.991c0.129,0.01,0.258,0.015,0.386,0.015c2.588,0,4.78-1.996,4.98-4.62l2.282-29.895
		c0.21-2.753-1.852-5.156-4.605-5.366c-2.744-0.219-5.156,1.852-5.366,4.605l-2.282,29.895
		C95.096,307.378,97.158,309.781,99.911,309.991z"/>
	<path d="M240.56,68.785h76.262c2.762,0,5-2.239,5-5s-2.238-5-5-5H240.56c-2.762,0-5,2.239-5,5S237.798,68.785,240.56,68.785z"/>
	<path d="M186.541,245.14h50.841c2.762,0,5-2.239,5-5s-2.238-5-5-5h-50.841c-2.761,0-5,2.239-5,5S183.78,245.14,186.541,245.14z"/>
	<path d="M262.803,235.14h-11.121c-2.762,0-5,2.239-5,5s2.238,5,5,5h11.121c2.762,0,5-2.239,5-5S265.564,235.14,262.803,235.14z"/>
	<path d="M316.821,76.261h-27.009c-2.762,0-5,2.239-5,5s2.238,5,5,5h27.009c2.762,0,5-2.239,5-5S319.583,76.261,316.821,76.261z"/>
</g>
</svg>